<?xml version="1.0" encoding="utf-8"?>
<!-- Generator: Adobe Illustrator 19.0.0, SVG Export Plug-In . SVG Version: 6.00 Build 0)  -->
<svg version="1.1" id="Layer_1" xmlns="http://www.w3.org/2000/svg" xmlns:xlink="http://www.w3.org/1999/xlink" x="0px" y="0px"
	 viewBox="0 0 1280 800" style="enable-background:new 0 0 1280 800;" xml:space="preserve">
<style type="text/css">
	.st0{display:none;}
	.st1{display:inline;fill:none;stroke:#666666;stroke-width:6;stroke-miterlimit:10;}
	.st2{fill:none;stroke:#2B292A;stroke-width:6;stroke-miterlimit:10;}
	.st3{fill:#BC1964;}
	.st4{fill:none;stroke:#3C3C3D;stroke-width:8;stroke-miterlimit:10;}
	.st5{fill:none;stroke:#3C3C3D;stroke-width:9;stroke-miterlimit:10;}
</style>
<g id="Layer_2" class="st0">
	<path id="XMLID_13_" class="st1" d="M818,678.7L326.3,403c-7.8-4.4-10.6-14.4-6.3-22.3L498.8,54.4c4.3-7.9,14.2-10.8,22-6.4
		l491.8,275.6c7.8,4.4,10.6,14.4,6.3,22.3L840.1,672.3C835.8,680.2,825.8,683,818,678.7z"/>
	<line id="XMLID_42_" class="st1" x1="473.5" y1="431" x2="618.4" y2="177.8"/>
	<line id="XMLID_43_" class="st1" x1="565.4" y1="487" x2="710.4" y2="228.7"/>
	<line id="XMLID_44_" class="st1" x1="807.7" y1="282.7" x2="662.7" y2="540.3"/>
	<line id="XMLID_45_" class="st1" x1="898.1" y1="332.7" x2="751.9" y2="585.4"/>
	<line id="XMLID_46_" class="st1" x1="491" y1="325.8" x2="872.2" y2="540.3"/>
	<line id="XMLID_47_" class="st1" x1="546" y1="228.7" x2="926.3" y2="433.1"/>
	<line id="XMLID_48_" class="st1" x1="496.4" y1="431" x2="587" y2="411.5"/>
	<line id="XMLID_49_" class="st1" x1="531.6" y1="377.7" x2="546" y2="470.6"/>
	<line id="XMLID_51_" class="st1" x1="654.6" y1="384.5" x2="745.1" y2="365"/>
	<line id="XMLID_50_" class="st1" x1="689.7" y1="331.2" x2="704.1" y2="424.2"/>
	<line id="XMLID_53_" class="st1" x1="689.7" y1="532.1" x2="780.3" y2="512.6"/>
	<line id="XMLID_52_" class="st1" x1="724.9" y1="478.8" x2="739.2" y2="571.8"/>
	<ellipse id="XMLID_41_" class="st1" cx="654.1" cy="229.1" rx="31.6" ry="31.6"/>
	<ellipse id="XMLID_54_" class="st1" cx="637.9" cy="473.7" rx="31.6" ry="31.6"/>
	<ellipse id="XMLID_55_" class="st1" cx="597.3" cy="313.8" rx="31.6" ry="31.6"/>
</g>
<rect x="151" y="116" class="st2" width="1028" height="612"/>
<rect x="168" y="146" class="st3" width="198" height="26"/>
<rect x="947" y="146" class="st3" width="198" height="26"/>
<rect x="392" y="442" class="st4" width="555" height="30"/>
<g>
	<path d="M439.3,324.6h10.9v30.7c0,13.8-6.6,18.6-17.3,18.6c-2.5,0-5.8-0.4-8-1.2l1.2-8.9c1.5,0.5,3.5,0.9,5.6,0.9
		c4.6,0,7.5-2.1,7.5-9.6V324.6z"/>
	<path d="M459.3,324.6h10.9V346h0.2c1.1-1.9,2.2-3.6,3.3-5.3l11-16.1h13.5l-16.1,20.7l16.9,27.9h-12.8l-11.9-21l-4.2,5.1v15.8h-10.9
		V324.6z"/>
	<path d="M518.1,325.2c3.4-0.6,8.1-1,14.8-1c6.8,0,11.6,1.3,14.8,3.9c3.1,2.4,5.2,6.5,5.2,11.2s-1.6,8.8-4.5,11.5
		c-3.7,3.5-9.3,5.1-15.8,5.1c-1.4,0-2.7-0.1-3.7-0.2v17.4h-10.9V325.2z M529,347.3c0.9,0.2,2.1,0.3,3.7,0.3c5.8,0,9.4-3,9.4-7.9
		c0-4.5-3.1-7.1-8.6-7.1c-2.2,0-3.7,0.2-4.5,0.4V347.3z"/>
	<path d="M559.9,325.2c3.5-0.6,8.8-1,14.6-1c7.2,0,12.2,1.1,15.7,3.8c2.9,2.3,4.5,5.7,4.5,10.2c0,6.2-4.4,10.4-8.6,12v0.2
		c3.4,1.4,5.3,4.6,6.5,9.1c1.5,5.5,3,11.8,4,13.7h-11.2c-0.8-1.4-1.9-5.3-3.4-11.3c-1.3-6-3.4-7.7-7.8-7.8h-3.3v19.1h-10.9V325.2z
		 M570.8,346.1h4.3c5.5,0,8.7-2.7,8.7-7c0-4.5-3-6.7-8.1-6.8c-2.7,0-4.2,0.2-5,0.4V346.1z"/>
	<path d="M646.8,348.3c0,15.9-9.6,25.6-23.8,25.6c-14.4,0-22.8-10.9-22.8-24.7c0-14.5,9.3-25.4,23.6-25.4
		C638.6,323.8,646.8,335,646.8,348.3z M611.7,349c0,9.5,4.5,16.2,11.8,16.2c7.4,0,11.7-7.1,11.7-16.5c0-8.7-4.2-16.2-11.7-16.2
		C616,332.5,611.7,339.6,611.7,349z"/>
	<path d="M661.3,333.8h-13v-9.2h37.3v9.2h-13.2v39.3h-11V333.8z"/>
	<path d="M733.7,348.3c0,15.9-9.6,25.6-23.8,25.6c-14.4,0-22.8-10.9-22.8-24.7c0-14.5,9.3-25.4,23.6-25.4
		C725.6,323.8,733.7,335,733.7,348.3z M698.7,349c0,9.5,4.5,16.2,11.8,16.2c7.4,0,11.7-7.1,11.7-16.5c0-8.7-4.2-16.2-11.7-16.2
		C703,332.5,698.7,339.6,698.7,349z"/>
	<path d="M782,354.5c-0.2-5.8-0.4-12.9-0.4-19.9h-0.2c-1.5,6.2-3.5,13.1-5.4,18.8l-5.9,18.9h-8.6l-5.2-18.8
		c-1.6-5.7-3.2-12.6-4.4-18.9h-0.1c-0.3,6.6-0.5,14-0.9,20.1l-0.9,18.4h-10.2l3.1-48.5h14.6l4.8,16.2c1.5,5.6,3,11.7,4.1,17.4h0.2
		c1.4-5.6,3-12,4.6-17.4l5.2-16.1h14.3l2.7,48.5h-10.7L782,354.5z"/>
	<path d="M812.9,360.7l-3.5,12.5h-11.4l14.8-48.5h14.4l15,48.5h-11.8l-3.7-12.5H812.9z M825.2,352.5l-3-10.3
		c-0.9-2.9-1.7-6.5-2.4-9.4h-0.1c-0.7,2.9-1.4,6.6-2.2,9.4l-2.9,10.3H825.2z"/>
	<path d="M872.7,373.1l-4.4-8.8c-1.8-3.4-3-5.9-4.3-8.7h-0.1c-1,2.8-2.2,5.3-3.7,8.7l-4,8.8h-12.5l14-24.6l-13.5-24h12.6l4.2,8.9
		c1.4,3,2.5,5.3,3.7,8.1h0.1c1.2-3.1,2.1-5.3,3.3-8.1l4.1-8.9h12.5L871,348.3l14.4,24.8H872.7z"/>
</g>
<rect x="173" y="534" class="st5" width="972" height="175"/>
<ellipse class="st5" cx="198.5" cy="562" rx="8.5" ry="9"/>
<ellipse class="st5" cx="238" cy="562" rx="8.5" ry="9"/>
<ellipse class="st5" cx="275.5" cy="562" rx="8.5" ry="9"/>
</svg>
