<?xml version="1.0" encoding="utf-8"?>
<!-- Generator: Adobe Illustrator 19.0.0, SVG Export Plug-In . SVG Version: 6.00 Build 0)  -->
<svg version="1.1" id="Calque_1" xmlns="http://www.w3.org/2000/svg" xmlns:xlink="http://www.w3.org/1999/xlink" x="0px" y="0px"
	 viewBox="0 0 432 432" style="enable-background:new 0 0 432 432;" xml:space="preserve">
<style type="text/css">
	._x005B_Par_x0020_d√_x00A9_faut_x005D_{fill:#FFFFFF;stroke:#000000;stroke-miterlimit:10;}
	.Swing_GS{fill:#A6D0E4;}
	.st0{fill:#C87B33;}
	.st1{fill:#FFFFFF;}
	.st2{fill:none;}
	.st3{font-family:'Besom';}
	.st4{font-size:90px;}
</style>
<g>
	<g>
		<g>
			<path d="M310.3,313.2c0.3-0.1,0.5-0.1,0.6-0.2c3.6-2.3,6.7-5.2,8.9-8.9c2.8-5,2.9-10,0-15c-0.9-1.5-2-2.9-3.5-3.8
				c-1.5-0.9-2.4-0.6-3.2,0.9c-0.8,1.6-1.6,3.3-1.9,5.1c-0.5,2.4-0.9,4.8-1.3,7.2c-0.6,3.7-0.4,7.4-0.1,11.1
				C309.9,310.7,310.1,311.9,310.3,313.2z M353,299.5c0.4,0,0.6,0.1,0.8,0c2.2-0.4,4.4-1,6.5-2.1c1.7-0.9,3.1-2.1,4.2-3.7
				c1.5-2.2,1.8-4.7,1.4-7.3c-0.5-3.6-2.3-6.4-5.4-8.4c-1.9-1.2-3.4-0.8-4.5,1.2c-0.5,1-0.9,2.1-1.1,3.1c-1.1,4.4-1.6,9-1.9,13.5
				C352.9,297,353,298.2,353,299.5z"/>
		</g>
		<g>
			<g>
				<path d="M153.8,223.5c-10.8,2.1-16.2,3.3-26.8,6.3c0.1,0.8,0.3,1.5,0.4,2.1c1.1,4.1,1.7,6.2,2.9,10.3c0.7,2.5-0.8,3.9-2.4,4.5
					c-2,0.7-4.2,1.4-6.3,2c-0.5,0.1-0.7,0.2-1.2,0.4c-1.2,0.5-2,0.4-2.9-0.6c-0.7-0.9-1.4-2.1-1.8-3.1c-1.4-3-2.8-6.1-4.1-9.1
					c-2.1-4.8-4.6-9.7-6.6-14.5c-1.8-4.3-3.6-8.9-5.2-13.4c-2.3-6.3-4.6-12.8-6.7-19.2c-1.2-3.5-2.2-7.2-3.1-10.9
					c-0.2-0.5,0-1-0.1-1.4c-0.1-1.4,0.9-2.5,2.5-3.3c2.6-1.3,5.6-2.4,8.5-3c2-0.5,3.8,0,4.8,1.2c1.6,1.8,3.1,3.8,4.2,5.8
					c3.4,6.1,5.4,12.9,7.4,19.5c1.8,6,3.4,12.1,5.1,18.2c0.7,2.6,1.6,5.3,2.4,7.7c0.4,1.4,0.8,2.9,1.3,4.5c5.4-1.5,8.1-2.2,13.5-3.5
					c4.5-1.1,8.9-1.9,13.6-2.8c-0.1-0.3,0-0.8-0.1-1.2c-1.3-5.5-2.7-11.1-3.8-16.5c-0.9-4.2-1.6-8.6-2.2-12.9
					c-0.8-5.8-1.7-11.5-2.2-17.3c-0.3-3.2-0.4-6.4-0.3-9.6c0-0.9,0.5-1.9,1-2.7c1-1.5,3.5-1.6,4.3-0.2c0.7,1.2,1.2,2.6,1.3,3.9
					c0.6,4.9,1.5,10.5,2.2,15.6c0.4,3.3,0.8,6.6,1.1,9.8c0.3,2.8,0.6,5.7,0.9,8.4c0.6,4.3,1.4,8.8,2,13.1c0.7,5.2,1.6,10.6,2.3,15.9
					c0.3,2.1,0.8,4.4,1,6.5c0.1,0.9,0.1,1.9,0.1,2.9c0,1-0.6,1.5-1.4,1.7c-0.7,0.2-1.4,0-1.9-0.8c-0.5-0.9-0.9-1.9-1.1-2.8
					C155.6,231.2,154.8,227.3,153.8,223.5z"/>
				<path d="M179.2,158c0.3,0.6,0.4,1,0.6,1.6c1.5,3.3,1.9,6.7,2.5,10.2c1.4,8.8,1.8,17.8,2.5,26.5c0.4,5.9,0.8,11.8,1.2,17.8
					c0,0.3,0.2,0.5,0.2,0.9c1-0.1,1.5-0.1,2.4-0.2c0.3,0,0.7-0.2,1-0.1c0.4,0.1,0.7,0.4,0.9,0.7c0.1,0.2-0.1,0.6-0.3,0.9
					c-0.4,0.2-1,0.5-1.7,0.7c-0.7,0.2-1.4,0.2-2.3,0.4c0.2,5,0.3,9.9,0.8,15c1.5-0.1,2.9-0.3,4.1-0.5c3.7-0.4,7.5-0.6,11.4-0.9
					c0.3,0,0.4,0,0.7,0c1.1,0.1,1.6,0.5,1.7,1.1c0.1,0.7-0.4,1.2-1.5,1.4c-0.1,0-0.3,0.1-0.5,0.1c-2.1,0.2-4.1,0.6-6.2,0.8
					c-7.1,0.8-14.2,1.8-21.3,3.2c-0.4,0.1-0.6,0.1-1.1,0.2c-1.7,0.2-1.7,0-2.6-1.6c-1.8-3.4-2.3-7.2-3.1-11c-1-4.7-1.9-9.5-2.8-14.1
					c-1-5.4-1.9-10.9-2.8-16.2c-0.7-4.2-1.4-8.5-2.1-12.6c-0.6-3.4-1.3-7-1.7-10.4c-0.4-2.8-0.7-5.9-1-8.8c-0.1-0.9-0.1-1.9,0-2.9
					c0.1-1,0.8-1.7,2-2.2c2.7-1.1,5.7-1.7,8.7-2.2c6.4-1,13-1.6,19.4-2.3c2.7-0.3,5.9-0.3,8.5-0.7c0.5-0.1,1.1-0.2,1.6-0.1
					c0.8,0.1,1.5,0.6,1.7,1.2c0.2,0.7-0.4,1.3-1,1.6c-0.5,0.1-0.9,0.4-1.5,0.4c-3.6,0.2-7.3,0.6-11,1
					C183.6,157.4,182.1,157.6,179.2,158z"/>
				<path d="M225.9,230.2c3-0.1,5.6-0.2,8.3-0.1c2.5,0,5,0.2,7.4,0.3c0.2,0,0.5,0,0.8,0.2c0.8,0.2,1.3,0.8,1.2,1.4
					c0,0.5-0.6,1-1.3,1.1c-1.1,0-1.6,0.1-2.7,0.1c-4.6,0-9.3,0-13.8,0.1c-2.8,0.1-5.7,0.2-8.4,0.3c-2.3,0-4.9,0-7.3-0.1
					c-2.5-0.1-1.8-4.2-1.9-5.8c-0.3-5.7,0-11.7-0.2-17.5c-0.2-6.2-0.4-12.6-0.7-18.9c-0.2-5.4-0.7-10.9-1-16.2
					c-0.1-2.2-0.2-4.5-0.2-6.6c0-3-0.1-6.2-0.1-9.2c0-1,0.1-2.1,0.3-3.2c0.1-0.3,0.5-0.9,0.9-1.1c0.9-0.3,1.9-0.5,2.8-0.6
					c2.4-0.1,4.9-0.4,7.4-0.5c3.4-0.1,6.9,0.4,10.1,0.9c2,0.4,2.8,1.2,2.8,2.8c-0.3,6.6-0.2,13.3-1,19.8c-0.6,4.6-0.7,9.4-1,14
					c-0.4,4.7-0.6,9.6-0.9,14.3c-0.5,7.5-1,15.1-1.5,22.7C225.9,229.2,225.9,229.5,225.9,230.2z"/>
				<path d="M264.5,233.9c3,0.3,5.6,0.5,8.2,0.9c2.5,0.4,4.9,0.8,7.3,1.2c0.2,0,0.5,0.1,0.7,0.3c0.7,0.3,1.2,0.9,1,1.5
					c-0.1,0.5-0.8,0.9-1.4,0.9c-1.1-0.1-1.7-0.2-2.8-0.2c-4.6-0.6-9.2-1.1-13.7-1.6c-2.8-0.3-5.7-0.5-8.4-0.8
					c-2.3-0.3-4.9-0.6-7.2-1c-2.4-0.4-1.3-4.4-1.1-6c0.4-5.7,1.5-11.6,2-17.4c0.6-6.2,1.2-12.5,1.7-18.8c0.4-5.4,0.7-10.9,1-16.2
					c0.1-2.2,0.4-4.5,0.6-6.6c0.4-3,0.7-6.2,1-9.1c0.1-1,0.3-2.1,0.7-3.1c0.2-0.3,0.6-0.8,1.1-1c1-0.2,2-0.3,2.9-0.2
					c2.4,0.2,4.9,0.2,7.4,0.5c3.4,0.3,6.8,1.2,9.9,2.2c2,0.6,2.7,1.5,2.4,3.1c-1.1,6.5-1.8,13.1-3.4,19.5c-1.2,4.5-1.8,9.3-2.7,13.8
					c-0.9,4.7-1.8,9.5-2.6,14.1c-1.4,7.4-2.8,14.9-4.2,22.3C264.7,232.8,264.6,233.2,264.5,233.9z"/>
				<path d="M330.5,209.8c-3,8.5-7.4,16.7-12.7,24.3c-2.5,3.6-5.6,6.5-9.4,8.6c-1.5,0.9-3.2,1.5-4.9,2.1c-1.9,0.7-3.7,0.5-5.5-0.2
					c-4.1-1.7-7-4.7-9.1-8.8c-3.3-6.6-4.3-13.7-3.9-20.9c0.2-4.2,0.6-8.5,1.4-12.7c1.1-5.6,3-10.9,5.8-16c2.2-4,5-7.9,8.5-11
					c3.2-2.9,7-5.3,11.6-6.6c3.6-1.1,7.4-1.1,11.2,1c0.1,0,0.1,0,0.1,0c4,0.9,5.9,4,7.4,6.7c2.4,3.9,3.1,8.1,3.2,12.1
					C334.3,195.8,332.9,203.1,330.5,209.8z M324.5,174.9c-0.3,0.2-0.4,0.3-0.7,0.5c-4.4,4.9-8.2,10.3-11.2,15.9
					c-2.4,4.4-4.5,9-6,13.6c-1.3,3.9-2.6,8-3.6,12.1c-1.5,6.4-1.9,13.1-1.4,19.7c0.1,1.3,0.5,2.5,0.6,3.7c2,0,3.4-0.7,4.9-1.5
					c3.4-2,6.2-4.7,8.4-7.8c3.3-4.6,6.2-9.6,8.4-14.8c3.7-8.8,6.5-20.9,5.2-30.7C328.5,181.9,327.2,178.3,324.5,174.9z"/>
			</g>
		</g>
	</g>
	<path d="M164,309.2c0.1,0.1,0.1,0.2,0.2,0.3C164,309.3,164,309.2,164,309.2z"/>
	<g>
		<path class="st0" d="M257.1,114.2c0.4-4.5-0.9-9.6-4.4-12.6c-2-1.8-4.1-2-6.4-3.1c-3.1-1.5-1.2-1.9-1.4-4.4
			c-0.3-2.9-2.5-3.1-5.1-3.2c-7.7-0.4-15.4,0-23.1-0.2c-6.3-0.1-12.6-0.2-18.8-0.3c-2.9,0-6.2-0.4-9.3-0.2c1.1-0.2,2.2-1.3,2.3-2.6
			c0,0,0,0,0-0.1c0,0,0,0,0-0.1c-0.3-2.7-2.2-5-3.3-7.4c-0.7-1.5-1.1-4.6-2.6-5.6c-1.9-1.3-3.8,0.6-3.6,2.5c0.3,2.4,1.8,4.8,2.9,6.9
			c0.5,1,1.1,1.9,1.6,2.9c0.3,0.8,0.3,1.9,0.8,2.6c0.5,0.6,1,0.9,1.5,0.9c-1.1,0.1-2.2,0.2-3.2,0.5c-2.4,0.7-3.1,2.1-2.4,4.6
			c1.8,6.6,5.2,12.9,7.3,19.5c0.9,2.8,1.8,5.6,2.3,8.5c0.2,1.3,0.9,3.4,0.6,4.7c-0.5,2.1-0.2,1.5-2.6,1.7
			c-3.8,0.4-10.8-1.3-14.1,1.4c-1.8,1.5-1.2,2.6,0.5,3.7c2.2,1.5,6.1,2.4,8.6,3.3c3.5,1.3,7.1,2.4,10.8,3.2
			c12.2,2.8,25.3,3.5,37.7,1.6c5-0.8,10-2,14.8-3.9c1.9-0.8,8.2-2.5,7.3-5.9c-0.8-2.8-5.7-1.8-7.5-1.8c-3.7,0-7.4,0.8-11-0.3
			c-0.1-0.4-0.5-1.3-0.2-1.7c0.5-0.6,1.2,0.2,1.7,0c-0.3,0.1,3.7-0.1,3.4-0.1C249.7,128.7,256.4,122.1,257.1,114.2z M186.2,133.9
			c19.8,0,39.5,1.6,59.3,1.7c-3.9,2.4-10.2,3-14.3,3.5c-5.4,0.7-10.9,0.8-16.3,0.5c-5.5-0.2-10.9-0.9-16.3-2.1
			c-2.4-0.5-4.8-1.2-7.2-1.9C190.3,135.4,187.6,134.9,186.2,133.9z M240.1,125.4c-3.4,0,2.5-0.7,3.2-1c1.7-0.6,3.3-1.6,4.5-2.9
			c3.1-3.2,4.3-8,2.5-12.2c-0.7-1.7-1.8-3.1-3.4-4.1c-1.3-0.8-2.1-0.6-2.7-2c-1.3-3.2,5.5,2,5.9,2.4
			C256.5,113.8,249.4,125.1,240.1,125.4z M246.4,113.7c-0.1,2.7-1.4,5.3-3.9,6.5c-0.9,0.5-2.9,1.2-3.5-0.3c-0.3-0.7,0.7-3,0.9-3.8
			c0.4-1.4,0.7-2.8,1.1-4.1c0.2-0.8,0.3-2.5,0.8-3.1C244.3,106.2,246.3,111.9,246.4,113.7z M196.4,120.4c-0.7-3.2-1.7-6.4-2.8-9.5
			c-1-2.8-1.9-5.6-3-8.4c-1-2.5-2.5-5.1-3-7.8c7.2-1.2,15.2,0,22.5,0.1c6.7,0.1,13.4,0.1,20.1,0.2c1.8,0,8.7-1,9.9,0.7
			c0.7,1-1.5,7-1.8,8.2c-1.5,6.5-3.1,13-5.1,19.3c-0.7,2.4-1.4,7-3.9,8c-2.5,1-7.9-0.3-10.6-0.5c-3.4-0.2-6.8-0.4-10.2-0.6
			c-2.5-0.1-7.1,0.6-9.3-0.3C196.5,128.7,197,123,196.4,120.4z"/>
		<path class="st0" d="M196.3,72.9c-0.9,4.3-4.4,9.9-2.2,14.3c0.8,1.7,2.7,3.4,4.7,2.8c1.9-0.6,2-1.7,1.2-3.1
			c-1.3-2.3-1.9-1.3-1.8-3.7c0.1-1.8,0.9-3.7,1.4-5.4c0.8-2.6,1.6-5,1.9-7.7c-0.5-5.5-4.1-9.4-7.7-13.3c-1.4-1.6-2.9-4.4-5.3-3.9
			c-2.2,0.5-2.2,1.9-1.1,3.6C191,62,197.9,65.4,196.3,72.9z"/>
		<path class="st0" d="M210,66.5c0.6,2.4-5.3,23.3,1.7,21.8c2.5-0.5,1.7-2.4,1.5-4.2c-0.7-5.6,1.4-10.7,1.7-16.2
			c-0.4-5.4-5-7.4-6.7-12.2c-0.8-2.1,0-5.5-2.8-5.7c-2-0.2-2.8,1.5-2.8,3.2c0,2.3,1.4,5.1,2.5,7C206.5,62.2,209.3,64,210,66.5z"/>
		<path class="st0" d="M223.1,89.1c1.1,0.4,2.7-0.2,3.2-1.3c0.5-1.1-0.4-2.2-0.8-3.2c-1.1-3.3-1.7-6.1-0.5-9.5
			c1.9-5.2,4.7-9.7,4.8-15.4c0,0,0,0,0-0.1c0,0,0,0,0-0.1c-0.1-2,0-5.9-2.8-6.2c-1-0.1-2.1,0.5-2.5,1.4c-0.5,1.1,0.4,3,0.5,4.1
			c0.3,2.9-0.4,5.5-1.4,8.2c-1.6,4.3-4.4,8.5-4.2,13.3C219.5,82.6,220.6,88.1,223.1,89.1z"/>
		<path class="st0" d="M232.8,89.4c1.2,0.4,2.5-0.2,3.2-1.2c0.3-0.5,0-0.9,0.1-1.5c0.3-2.3-0.1-3.4,1.2-5.6c0.8-1.3,1.8-2.5,2.9-3.6
			c2.7-3,4.3-5.1,4.8-9.2c0-2.5-2.8-6.1-4.8-2.7c-0.6,1,0.2,2.7,0,3.7c-0.3,2.7-2.2,4.3-3.9,6.2c-2.1,2.4-4.3,5.1-5.1,8.3
			C230.8,85.5,230.7,88.5,232.8,89.4z"/>
	</g>
</g>
<path class="st1" d="M86.2,307.4c2.5,6.5,5.1,13,7.6,19.5"/>
<rect x="136.2" y="265.9" class="st2" width="272.4" height="86.7"/>
<text transform="matrix(1 0 0 1 136.1903 325.7741)" class="st3 st4">NODE</text>
</svg>
